<?xml version="1.0" encoding="UTF-8" standalone="no"?>
<svg
   xmlns:dc="http://purl.org/dc/elements/1.1/"
   xmlns:cc="http://creativecommons.org/ns#"
   xmlns:rdf="http://www.w3.org/1999/02/22-rdf-syntax-ns#"
   xmlns:svg="http://www.w3.org/2000/svg"
   xmlns="http://www.w3.org/2000/svg"
   id="svg2"
   version="1.1"
   viewBox="0 0 160 160"
   height="160pt"
   width="160pt">
  <metadata
     id="metadata41">
    <rdf:RDF>
      <cc:Work
         rdf:about="">
        <dc:format>image/svg+xml</dc:format>
        <dc:type
           rdf:resource="http://purl.org/dc/dcmitype/StillImage" />
      </cc:Work>
    </rdf:RDF>
  </metadata>
  <defs
     id="defs39" />
  <path
     id="path6"
     d=" M 69.04 1.16 C 72.63 0.11 76.35 0.44 80.00 0.83 C 109.61 -0.09 138.42 18.23 151.22 44.78 C 156.45 55.69 159.79 67.87 159.15 80.03 C 159.19 82.03 159.54 84.01 159.59 86.01 C 157.59 101.58 152.31 117.07 142.27 129.34 C 128.78 146.69 107.73 157.47 85.96 159.39 C 79.30 158.67 72.53 159.54 65.93 158.21 C 47.53 154.94 30.52 144.82 18.60 130.46 C 7.97 117.77 1.89 101.55 0.63 85.11 C 0.86 77.44 0.49 69.62 2.64 62.16 C 6.75 43.28 18.29 26.22 34.10 15.14 C 44.40 7.71 56.55 3.18 69.04 1.16 Z"
     fill="#c51426" />
  <path
     id="path8"
     d=" M 48.93 19.20 C 71.49 7.25 101.00 9.64 121.03 25.59 C 115.70 30.62 110.78 36.07 105.83 41.48 C 100.26 40.73 94.63 40.36 89.09 39.38 C 86.57 38.89 84.00 39.17 81.47 39.49 C 80.24 33.90 83.36 28.59 82.49 23.03 C 82.20 20.83 82.28 18.20 80.08 16.94 C 80.32 22.32 78.93 27.56 78.73 32.91 C 77.95 34.50 77.36 36.16 76.86 37.85 C 75.42 39.01 74.04 40.25 72.86 41.69 C 69.23 41.17 65.09 41.40 62.18 38.78 C 56.04 33.69 51.18 26.90 48.93 19.20 Z"
     fill="#ffffff" />
  <path
     id="path10"
     d=" M 43.77 14.65 C 45.64 15.96 47.63 17.27 48.93 19.20 C 51.18 26.90 56.04 33.69 62.18 38.78 C 65.09 41.40 69.23 41.17 72.86 41.69 C 74.04 40.25 75.42 39.01 76.86 37.85 C 77.36 36.16 77.95 34.50 78.73 32.91 C 78.93 27.56 80.32 22.32 80.08 16.94 C 82.28 18.20 82.20 20.83 82.49 23.03 C 83.36 28.59 80.24 33.90 81.47 39.49 C 84.00 39.17 86.57 38.89 89.09 39.38 C 94.63 40.36 100.26 40.73 105.83 41.48 C 105.58 41.84 105.08 42.55 104.83 42.91 L 104.45 42.79 C 99.44 40.95 94.07 40.20 88.79 41.27 C 92.85 42.95 97.18 43.95 101.14 45.90 C 98.47 46.03 95.81 46.09 93.15 46.29 C 94.67 47.41 96.25 48.45 97.80 49.52 C 97.24 50.10 96.12 51.25 95.56 51.83 C 91.22 51.60 90.18 46.37 85.93 45.66 C 86.73 46.95 87.55 48.23 88.37 49.51 C 86.02 49.10 83.54 48.87 81.49 47.55 C 78.56 45.83 76.47 42.60 72.89 42.13 C 69.16 42.49 69.32 47.75 70.88 50.19 C 73.47 53.73 76.73 56.83 78.31 61.03 C 77.87 61.87 77.43 62.72 76.99 63.56 C 78.37 64.68 79.92 65.74 80.43 67.56 C 79.58 68.81 78.65 70.01 77.78 71.25 C 70.43 70.11 62.96 69.40 55.52 69.33 C 61.64 73.01 69.34 68.94 75.52 72.24 C 75.33 72.61 74.95 73.35 74.76 73.72 C 70.83 74.88 66.61 73.97 62.57 74.27 C 65.28 75.48 68.21 75.95 71.14 76.29 C 69.47 76.90 67.69 77.11 65.93 77.31 C 66.90 78.28 67.88 79.25 68.85 80.22 C 67.88 80.20 65.96 80.16 64.99 80.14 C 65.24 80.88 65.73 82.34 65.97 83.08 C 65.14 82.76 63.47 82.12 62.64 81.81 C 62.87 82.72 63.32 84.55 63.55 85.47 C 63.15 85.86 62.34 86.65 61.94 87.04 C 61.52 87.45 60.69 88.27 60.27 88.67 C 58.78 87.19 57.30 85.70 55.80 84.22 C 56.31 84.09 57.31 83.82 57.81 83.68 C 55.20 81.70 53.09 79.18 50.75 76.92 C 51.87 79.84 54.50 81.97 55.12 85.10 C 56.25 86.86 57.44 88.59 58.50 90.40 C 56.95 88.92 55.50 87.34 54.00 85.81 C 49.52 88.96 44.67 91.77 41.14 96.06 C 37.96 99.90 33.98 103.04 31.23 107.23 C 29.62 109.66 27.71 111.86 25.63 113.90 C 24.79 113.25 23.95 112.60 23.11 111.94 C 26.40 110.00 29.28 107.40 31.16 104.04 C 34.74 98.45 38.97 93.30 43.54 88.49 C 45.87 85.99 49.29 85.05 52.05 83.14 C 49.38 79.07 47.17 74.68 44.06 70.92 C 42.33 68.69 39.49 68.04 37.05 66.89 C 34.61 65.84 32.40 64.29 29.90 63.36 C 26.40 63.08 22.94 64.08 19.63 65.12 C 17.62 64.27 15.61 63.44 13.62 62.56 C 12.37 62.08 11.65 60.85 10.76 59.94 C 11.62 60.09 13.34 60.39 14.21 60.54 C 16.43 61.17 18.62 62.08 20.97 62.04 C 24.04 62.17 26.90 60.67 29.95 60.72 C 32.47 61.02 34.81 62.06 37.24 62.75 C 34.03 59.97 30.05 58.18 25.77 58.04 C 24.19 55.97 22.68 53.70 22.40 51.04 C 21.82 48.12 23.15 45.33 23.54 42.49 C 23.23 42.18 22.60 41.55 22.29 41.24 C 21.45 40.63 20.60 40.04 19.75 39.46 C 21.49 38.88 23.24 38.35 25.04 37.97 C 27.19 38.18 28.89 35.45 26.30 34.56 C 23.58 32.83 28.08 31.30 29.37 32.82 C 30.04 33.11 30.72 33.40 31.39 33.69 C 31.81 32.72 32.24 31.74 32.67 30.77 C 35.45 30.12 38.09 28.84 40.95 28.59 C 45.50 29.37 48.64 33.40 53.27 34.09 C 52.05 31.89 50.51 29.87 49.39 27.61 C 48.50 25.13 48.38 22.38 47.03 20.06 C 45.68 18.42 44.08 16.86 43.77 14.65 Z"
     fill="#231f20" />
  <path
     id="path12"
     d=" M 33.85 29.37 C 38.09 26.06 42.36 22.76 47.03 20.06 C 48.38 22.38 48.50 25.13 49.39 27.61 C 50.51 29.87 52.05 31.89 53.27 34.09 C 48.64 33.40 45.50 29.37 40.95 28.59 C 38.09 28.84 35.45 30.12 32.67 30.77 C 32.24 31.74 31.81 32.72 31.39 33.69 C 30.72 33.40 30.04 33.11 29.37 32.82 C 30.58 31.33 31.82 29.70 33.85 29.37 Z"
     fill="#ffffff" />
  <path
     id="path14"
     d=" M 118.69 44.57 C 121.61 40.11 125.79 36.62 129.49 32.81 C 131.86 35.52 134.09 38.36 136.40 41.12 C 134.93 42.90 133.67 44.87 131.95 46.43 C 127.44 47.25 123.31 43.93 118.69 44.57 Z"
     fill="#ffffff" />
  <path
     id="path16"
     d=" M 138.48 35.51 C 140.02 35.03 141.57 34.54 143.12 34.08 C 141.69 37.41 139.80 40.52 137.74 43.50 C 136.34 45.13 134.70 46.53 133.06 47.92 C 136.70 49.60 140.13 51.73 143.14 54.39 C 145.92 57.38 149.86 60.50 149.54 65.02 C 149.29 67.24 150.11 70.19 147.96 71.70 C 145.39 74.04 142.75 76.89 139.05 77.17 C 130.98 78.26 122.86 76.86 114.77 76.65 C 114.90 79.90 115.92 82.99 117.12 85.98 C 115.83 90.28 113.18 93.94 109.75 96.79 C 108.97 96.81 107.42 96.85 106.65 96.87 C 108.11 102.41 110.16 107.82 110.47 113.60 C 106.86 112.94 102.89 113.46 99.69 111.36 C 95.95 109.16 91.97 107.43 88.12 105.43 C 88.07 105.91 87.97 106.88 87.92 107.37 C 91.66 111.80 96.16 115.69 99.07 120.74 C 92.87 117.10 89.15 110.77 84.33 105.66 C 82.23 101.84 78.94 98.97 75.12 96.92 C 79.52 104.84 86.17 111.12 91.95 118.00 C 95.38 121.42 99.74 123.73 103.58 126.67 C 102.65 124.58 101.84 122.41 101.87 120.08 C 102.64 121.29 103.38 122.53 104.11 123.77 C 105.37 123.79 106.63 123.84 107.89 123.90 C 110.39 120.97 109.61 117.07 110.54 113.61 C 111.07 118.04 112.20 123.40 109.19 127.19 C 105.13 129.23 100.31 128.70 95.98 127.93 C 91.47 126.91 86.66 125.92 83.08 122.79 C 76.71 117.81 73.23 110.28 67.81 104.45 C 69.16 113.85 77.25 120.63 78.35 130.10 C 79.12 136.31 79.85 142.54 81.14 148.67 C 81.27 150.56 81.07 152.45 80.93 154.33 C 78.57 154.07 78.90 151.70 78.66 149.96 C 76.92 141.14 77.18 132.02 74.76 123.33 C 73.94 122.83 73.11 122.32 72.29 121.81 C 69.36 115.21 64.67 109.42 62.81 102.35 C 63.09 102.03 63.66 101.40 63.94 101.08 C 64.67 100.33 65.41 99.60 66.16 98.88 C 66.48 98.58 67.12 97.96 67.44 97.66 C 67.92 99.57 68.63 101.54 70.73 102.15 C 72.34 106.84 75.46 110.75 78.23 114.78 C 80.90 118.60 84.28 121.99 88.48 124.10 C 86.65 120.55 83.14 118.40 80.71 115.32 C 77.98 111.94 75.55 108.33 72.79 104.97 C 72.33 101.75 70.67 98.95 68.51 96.57 C 68.84 96.18 69.50 95.41 69.84 95.02 C 70.54 94.21 71.25 93.41 71.98 92.62 C 76.92 95.84 81.80 99.18 86.82 102.28 C 85.87 102.67 84.91 103.06 83.95 103.44 C 84.55 104.21 85.77 105.75 86.37 106.51 C 86.81 105.21 87.19 103.88 87.59 102.56 C 91.52 106.99 97.52 108.60 102.59 111.32 C 99.15 106.62 100.77 100.96 102.41 95.98 C 103.76 93.36 101.40 91.22 99.69 89.56 C 99.74 93.15 97.21 95.78 95.20 98.46 C 95.02 98.86 94.67 99.65 94.49 100.05 C 93.89 98.70 93.29 97.36 92.67 96.03 C 93.35 95.59 94.71 94.72 95.38 94.28 C 89.45 92.15 83.40 90.19 77.98 86.89 C 79.38 85.99 80.93 85.79 82.36 86.73 C 87.48 89.30 92.95 91.41 98.77 91.32 C 95.65 84.73 87.59 84.69 81.44 83.26 C 82.16 82.43 82.92 81.63 83.71 80.87 C 89.74 80.39 95.72 83.37 98.51 88.82 C 98.73 88.40 99.16 87.56 99.38 87.14 C 99.97 87.45 101.16 88.07 101.75 88.37 C 101.06 85.80 100.20 83.28 99.04 80.88 C 93.88 82.00 89.37 77.99 84.29 79.41 C 84.86 78.89 85.43 78.40 86.03 77.91 C 89.30 77.44 92.53 78.27 95.47 79.69 C 96.03 79.79 97.16 80.00 97.73 80.11 C 97.29 77.73 96.66 75.38 96.50 72.95 C 95.39 72.20 94.23 71.50 93.28 70.56 C 93.70 70.11 94.52 69.23 94.93 68.79 C 95.55 68.81 96.79 68.87 97.41 68.90 C 99.31 71.44 102.33 72.18 105.37 72.04 C 104.40 71.59 103.43 71.14 102.45 70.71 C 100.81 69.09 98.96 67.70 97.18 66.24 C 98.27 65.17 99.39 64.13 100.53 63.12 C 104.73 66.63 107.47 72.15 113.18 73.57 C 113.43 73.94 113.94 74.69 114.20 75.06 C 114.49 74.63 115.09 73.77 115.39 73.33 C 115.70 73.89 116.33 75.01 116.64 75.57 C 122.66 77.07 128.88 76.09 134.98 75.76 C 131.96 73.08 128.31 71.38 124.56 70.00 C 126.74 70.35 128.88 70.85 131.03 71.31 C 129.04 68.81 126.93 66.35 124.26 64.54 C 117.74 65.32 112.90 60.04 107.54 57.28 C 107.46 54.96 110.12 56.06 111.11 56.80 C 112.48 57.78 113.75 58.89 115.06 59.95 C 116.13 58.59 117.21 57.24 118.28 55.89 C 117.44 55.94 115.75 56.05 114.90 56.11 C 114.81 55.61 114.62 54.61 114.53 54.12 C 112.79 53.82 111.06 53.53 109.32 53.24 C 109.70 52.95 110.08 52.67 110.47 52.38 C 115.47 54.10 121.92 55.12 125.44 50.11 C 124.85 49.68 123.67 48.84 123.07 48.41 C 125.01 48.93 127.02 49.19 128.82 47.99 C 125.07 46.33 120.97 46.08 116.95 45.71 C 117.19 45.50 117.67 45.09 117.91 44.89 L 116.75 44.49 L 118.69 44.57 C 123.31 43.93 127.44 47.25 131.95 46.43 C 133.67 44.87 134.93 42.90 136.40 41.12 C 136.60 40.87 137.01 40.37 137.21 40.12 C 137.64 38.58 138.06 37.05 138.48 35.51 Z"
     fill="#231f20" />
  <path
     id="path18"
     d=" M 26.30 34.56 C 28.89 35.45 27.19 38.18 25.04 37.97 C 24.37 36.50 24.79 35.36 26.30 34.56 Z"
     fill="#ffffff" />
  <path
     id="path20"
     d=" M 22.29 41.24 C 22.60 41.55 23.23 42.18 23.54 42.49 C 23.15 45.33 21.82 48.12 22.40 51.04 C 22.68 53.70 24.19 55.97 25.77 58.04 C 30.05 58.18 34.03 59.97 37.24 62.75 C 34.81 62.06 32.47 61.02 29.95 60.72 C 26.90 60.67 24.04 62.17 20.97 62.04 C 18.62 62.08 16.43 61.17 14.21 60.54 C 16.55 54.27 19.31 48.15 22.76 42.41 L 22.29 41.24 Z"
     fill="#ffffff" />
  <path
     id="path22"
     d=" M 88.79 41.27 C 94.07 40.20 99.44 40.95 104.45 42.79 C 102.25 45.05 100.00 47.25 97.86 49.56 L 97.80 49.52 C 96.25 48.45 94.67 47.41 93.15 46.29 C 95.81 46.09 98.47 46.03 101.14 45.90 C 97.18 43.95 92.85 42.95 88.79 41.27 Z"
     fill="#ffffff" />
  <path
     id="path24"
     d=" M 70.88 50.19 C 69.32 47.75 69.16 42.49 72.89 42.13 C 76.47 42.60 78.56 45.83 81.49 47.55 C 83.54 48.87 86.02 49.10 88.37 49.51 C 87.55 48.23 86.73 46.95 85.93 45.66 C 90.18 46.37 91.22 51.60 95.56 51.83 L 95.66 51.85 C 94.10 53.19 92.71 54.71 91.47 56.35 L 91.35 56.25 C 88.80 53.83 85.80 51.22 81.99 52.22 C 81.41 51.33 80.83 50.43 80.26 49.54 C 79.59 49.42 78.26 49.18 77.60 49.06 C 81.44 52.31 85.38 55.48 88.66 59.33 C 88.30 59.73 87.94 60.14 87.58 60.54 C 84.45 57.03 80.62 54.27 77.00 51.31 C 77.22 52.24 77.45 53.17 77.68 54.10 C 80.86 56.30 83.20 59.43 84.70 62.97 L 85.71 62.12 C 84.06 64.04 82.29 65.85 80.43 67.56 C 79.92 65.74 78.37 64.68 76.99 63.56 C 77.43 62.72 77.87 61.87 78.31 61.03 C 76.73 56.83 73.47 53.73 70.88 50.19 Z"
     fill="#ffffff" />
  <path
     id="path26"
     d=" M 133.06 47.92 C 134.70 46.53 136.34 45.13 137.74 43.50 C 139.85 46.96 141.90 50.51 143.14 54.39 C 140.13 51.73 136.70 49.60 133.06 47.92 Z"
     fill="#ffffff" />
  <path
     id="path28"
     d=" M 110.47 52.38 C 112.59 50.12 114.75 47.89 116.95 45.71 C 120.97 46.08 125.07 46.33 128.82 47.99 C 127.02 49.19 125.01 48.93 123.07 48.41 C 123.67 48.84 124.85 49.68 125.44 50.11 C 121.92 55.12 115.47 54.10 110.47 52.38 Z"
     fill="#ffffff" />
  <path
     id="path30"
     d=" M 77.60 49.06 C 78.26 49.18 79.59 49.42 80.26 49.54 C 80.83 50.43 81.41 51.33 81.99 52.22 C 85.80 51.22 88.80 53.83 91.35 56.25 C 90.45 57.27 89.55 58.30 88.66 59.33 C 85.38 55.48 81.44 52.31 77.60 49.06 Z"
     fill="#231f20" />
  <path
     id="path32"
     d=" M 130.02 50.39 C 132.63 48.46 135.78 50.21 137.89 52.01 C 136.69 54.52 135.56 57.17 136.32 60.00 C 135.97 60.36 135.27 61.07 134.92 61.43 C 130.91 59.86 126.83 58.45 122.78 56.99 C 124.52 54.54 126.96 52.78 129.31 50.97 C 131.55 51.83 133.80 52.80 136.24 52.92 C 134.24 51.91 132.09 51.22 130.02 50.39 Z"
     fill="#ffffff" />
  <path
     id="path34"
     d=" M 77.00 51.31 C 80.62 54.27 84.45 57.03 87.58 60.54 C 87.11 60.93 86.18 61.73 85.71 62.12 L 84.70 62.97 C 83.20 59.43 80.86 56.30 77.68 54.10 C 77.45 53.17 77.22 52.24 77.00 51.31 Z"
     fill="#231f20" />
  <path
     id="path36"
     d=" M 104.36 59.07 C 105.96 57.08 107.68 55.20 109.32 53.24 C 111.06 53.53 112.79 53.82 114.53 54.12 C 114.62 54.61 114.81 55.61 114.90 56.11 C 115.75 56.05 117.44 55.94 118.28 55.89 C 117.21 57.24 116.13 58.59 115.06 59.95 C 113.75 58.89 112.48 57.78 111.11 56.80 C 110.12 56.06 107.46 54.96 107.54 57.28 C 112.90 60.04 117.74 65.32 124.26 64.54 C 126.93 66.35 129.04 68.81 131.03 71.31 C 128.88 70.85 126.74 70.35 124.56 70.00 C 128.31 71.38 131.96 73.08 134.98 75.76 C 128.88 76.09 122.66 77.07 116.64 75.57 C 116.33 75.01 115.70 73.89 115.39 73.33 C 115.09 73.77 114.49 74.63 114.20 75.06 C 113.94 74.69 113.43 73.94 113.18 73.57 C 107.47 72.15 104.73 66.63 100.53 63.12 C 101.23 62.23 101.94 61.34 102.63 60.44 C 105.53 63.56 108.72 66.49 110.86 70.23 C 111.56 71.78 113.09 72.48 114.65 72.94 C 113.80 70.63 112.74 68.40 111.76 66.14 C 113.11 65.67 114.45 65.21 115.80 64.74 C 113.60 63.39 111.42 62.03 109.25 60.65 C 108.22 60.91 107.19 61.17 106.17 61.43 C 106.28 60.68 106.51 59.18 106.63 58.43 C 106.06 58.59 104.92 58.91 104.36 59.07 Z"
     fill="#ffffff" />
  <path
     id="path38"
     d=" M 137.65 53.72 C 140.59 55.24 143.16 57.33 145.36 59.79 L 144.99 60.95 L 146.69 60.43 C 146.44 61.06 145.94 62.32 145.69 62.95 L 147.37 62.37 C 147.32 63.83 147.36 65.29 147.53 66.74 C 146.29 65.90 145.04 65.07 143.81 64.21 L 143.58 65.63 C 141.86 64.58 140.05 63.69 138.15 63.01 C 137.08 60.04 136.55 56.77 137.65 53.72 Z"
     fill="#ffffff" />
  <path
     id="path40"
     d=" M 120.67 56.93 C 128.00 60.34 135.91 62.34 143.06 66.15 C 139.58 68.95 141.64 74.24 138.22 76.89 C 132.37 70.95 126.73 64.32 118.97 60.80 C 119.59 59.54 120.17 58.25 120.67 56.93 Z"
     fill="#ffffff" />
  <path
     id="path42"
     d=" M 104.36 59.07 C 104.92 58.91 106.06 58.59 106.63 58.43 C 106.51 59.18 106.28 60.68 106.17 61.43 C 107.19 61.17 108.22 60.91 109.25 60.65 C 111.42 62.03 113.60 63.39 115.80 64.74 C 114.45 65.21 113.11 65.67 111.76 66.14 C 112.74 68.40 113.80 70.63 114.65 72.94 C 113.09 72.48 111.56 71.78 110.86 70.23 C 108.72 66.49 105.53 63.56 102.63 60.44 C 103.06 60.10 103.93 59.41 104.36 59.07 Z"
     fill="#231f20" />
  <path
     id="path44"
     d=" M 142.83 60.26 C 144.09 59.68 145.26 61.84 144.22 62.67 C 142.95 63.15 142.00 61.12 142.83 60.26 Z"
     fill="#231f20" />
  <path
     id="path46"
     d=" M 13.62 62.56 C 15.61 63.44 17.62 64.27 19.63 65.12 C 22.94 64.08 26.40 63.08 29.90 63.36 C 32.40 64.29 34.61 65.84 37.05 66.89 C 39.49 68.04 42.33 68.69 44.06 70.92 C 47.17 74.68 49.38 79.07 52.05 83.14 C 49.29 85.05 45.87 85.99 43.54 88.49 C 38.97 93.30 34.74 98.45 31.16 104.04 C 29.28 107.40 26.40 110.00 23.11 111.94 C 23.95 112.60 24.79 113.25 25.63 113.90 C 27.71 111.86 29.62 109.66 31.23 107.23 C 33.98 103.04 37.96 99.90 41.14 96.06 C 44.67 91.77 49.52 88.96 54.00 85.81 C 55.50 87.34 56.95 88.92 58.50 90.40 C 57.44 88.59 56.25 86.86 55.12 85.10 C 54.50 81.97 51.87 79.84 50.75 76.92 C 53.09 79.18 55.20 81.70 57.81 83.68 C 57.31 83.82 56.31 84.09 55.80 84.22 C 57.30 85.70 58.78 87.19 60.27 88.67 C 60.69 88.27 61.52 87.45 61.94 87.04 C 50.27 99.05 38.86 111.35 27.08 123.26 C 16.25 109.86 10.45 92.35 11.83 75.12 C 12.11 70.89 12.99 66.74 13.62 62.56 Z"
     fill="#ffffff" />
  <path
     id="path48"
     d=" M 94.93 68.79 C 95.68 67.94 96.43 67.09 97.18 66.24 C 98.96 67.70 100.81 69.09 102.45 70.71 C 103.43 71.14 104.40 71.59 105.37 72.04 C 102.33 72.18 99.31 71.44 97.41 68.90 C 96.79 68.87 95.55 68.81 94.93 68.79 Z"
     fill="#ffffff" />
  <path
     id="path50"
     d=" M 143.23 68.20 C 145.15 67.32 148.51 68.44 147.82 70.97 C 145.62 72.60 143.19 73.87 140.81 75.21 C 140.75 72.68 141.50 70.10 143.23 68.20 Z"
     fill="#ffffff" />
  <path
     id="path52"
     d=" M 55.52 69.33 C 62.96 69.40 70.43 70.11 77.78 71.25 C 76.69 72.30 76.27 73.93 74.94 74.74 C 73.69 75.36 72.14 75.85 72.07 77.53 C 71.67 77.69 70.86 78.00 70.45 78.15 C 68.57 80.96 66.49 83.69 63.55 85.47 C 63.32 84.55 62.87 82.72 62.64 81.81 C 63.47 82.12 65.14 82.76 65.97 83.08 C 65.73 82.34 65.24 80.88 64.99 80.14 C 65.96 80.16 67.88 80.20 68.85 80.22 C 67.88 79.25 66.90 78.28 65.93 77.31 C 67.69 77.11 69.47 76.90 71.14 76.29 C 68.21 75.95 65.28 75.48 62.57 74.27 C 66.61 73.97 70.83 74.88 74.76 73.72 C 74.95 73.35 75.33 72.61 75.52 72.24 C 69.34 68.94 61.64 73.01 55.52 69.33 Z"
     fill="#ffffff" />
  <path
     id="path54"
     d=" M 93.11 70.39 L 93.28 70.56 C 94.23 71.50 95.39 72.20 96.50 72.95 C 96.66 75.38 97.29 77.73 97.73 80.11 C 97.16 80.00 96.03 79.79 95.47 79.69 C 92.53 78.27 89.30 77.44 86.03 77.91 C 88.40 75.42 90.92 73.06 93.11 70.39 Z"
     fill="#ffffff" />
  <path
     id="path56"
     d=" M 139.05 77.17 C 142.75 76.89 145.39 74.04 147.96 71.70 C 149.69 87.75 145.93 104.45 136.81 117.84 C 127.45 131.98 112.64 142.39 96.15 146.38 C 91.24 147.68 86.15 147.93 81.14 148.67 C 79.85 142.54 79.12 136.31 78.35 130.10 C 77.25 120.63 69.16 113.85 67.81 104.45 C 73.23 110.28 76.71 117.81 83.08 122.79 C 86.66 125.92 91.47 126.91 95.98 127.93 C 100.31 128.70 105.13 129.23 109.19 127.19 C 112.20 123.40 111.07 118.04 110.54 113.61 C 109.61 117.07 110.39 120.97 107.89 123.90 C 106.63 123.84 105.37 123.79 104.11 123.77 C 103.38 122.53 102.64 121.29 101.87 120.08 C 101.84 122.41 102.65 124.58 103.58 126.67 C 99.74 123.73 95.38 121.42 91.95 118.00 C 86.17 111.12 79.52 104.84 75.12 96.92 C 78.94 98.97 82.23 101.84 84.33 105.66 C 89.15 110.77 92.87 117.10 99.07 120.74 C 96.16 115.69 91.66 111.80 87.92 107.37 C 87.97 106.88 88.07 105.91 88.12 105.43 C 91.97 107.43 95.95 109.16 99.69 111.36 C 102.89 113.46 106.86 112.94 110.47 113.60 C 110.16 107.82 108.11 102.41 106.65 96.87 C 107.42 96.85 108.97 96.81 109.75 96.79 C 113.18 93.94 115.83 90.28 117.12 85.98 C 115.92 82.99 114.90 79.90 114.77 76.65 C 122.86 76.86 130.98 78.26 139.05 77.17 Z"
     fill="#ffffff" />
  <path
     id="path58"
     d=" M 100.64 73.89 C 103.08 73.90 105.51 74.58 107.09 76.52 C 104.77 76.15 102.15 75.98 100.64 73.89 Z"
     fill="#ffffff" />
  <path
     id="path60"
     d=" M 84.29 79.41 C 89.37 77.99 93.88 82.00 99.04 80.88 C 100.20 83.28 101.06 85.80 101.75 88.37 C 101.16 88.07 99.97 87.45 99.38 87.14 C 99.16 87.56 98.73 88.40 98.51 88.82 C 95.72 83.37 89.74 80.39 83.71 80.87 L 84.29 79.41 Z"
     fill="#ffffff" />
  <path
     id="path62"
     d=" M 75.14 89.81 C 77.05 87.53 78.46 84.19 81.44 83.26 C 87.59 84.69 95.65 84.73 98.77 91.32 C 92.95 91.41 87.48 89.30 82.36 86.73 C 80.93 85.79 79.38 85.99 77.98 86.89 C 83.40 90.19 89.45 92.15 95.38 94.28 C 94.71 94.72 93.35 95.59 92.67 96.03 C 93.29 97.36 93.89 98.70 94.49 100.05 C 94.67 99.65 95.02 98.86 95.20 98.46 C 97.21 95.78 99.74 93.15 99.69 89.56 C 101.40 91.22 103.76 93.36 102.41 95.98 C 100.77 100.96 99.15 106.62 102.59 111.32 C 97.52 108.60 91.52 106.99 87.59 102.56 C 87.19 103.88 86.81 105.21 86.37 106.51 C 85.77 105.75 84.55 104.21 83.95 103.44 C 84.91 103.06 85.87 102.67 86.82 102.28 C 81.80 99.18 76.92 95.84 71.98 92.62 C 72.46 92.09 72.94 91.56 73.42 91.03 C 73.81 91.53 74.57 92.52 74.96 93.01 C 78.09 92.58 80.38 94.85 82.71 96.54 C 82.78 97.13 82.92 98.33 82.99 98.93 C 83.85 98.70 84.71 98.47 85.57 98.24 C 87.22 99.38 88.90 100.47 90.64 101.48 C 90.54 101.73 90.35 102.25 90.25 102.51 C 92.47 103.90 94.64 105.41 97.07 106.42 C 95.27 102.83 91.68 100.86 88.89 98.16 C 84.98 94.42 80.22 91.63 75.14 89.81 Z"
     fill="#ffffff" />
  <path
     id="path64"
     d=" M 73.42 91.03 C 73.85 90.72 74.71 90.11 75.14 89.81 C 80.22 91.63 84.98 94.42 88.89 98.16 C 91.68 100.86 95.27 102.83 97.07 106.42 C 94.64 105.41 92.47 103.90 90.25 102.51 C 90.35 102.25 90.54 101.73 90.64 101.48 C 88.90 100.47 87.22 99.38 85.57 98.24 C 84.71 98.47 83.85 98.70 82.99 98.93 C 82.92 98.33 82.78 97.13 82.71 96.54 C 80.38 94.85 78.09 92.58 74.96 93.01 C 74.57 92.52 73.81 91.53 73.42 91.03 Z"
     fill="#231f20" />
  <path
     id="path66"
     d=" M 66.16 98.88 C 67.33 97.54 68.54 96.24 69.84 95.02 C 69.50 95.41 68.84 96.18 68.51 96.57 C 70.67 98.95 72.33 101.75 72.79 104.97 C 75.55 108.33 77.98 111.94 80.71 115.32 C 83.14 118.40 86.65 120.55 88.48 124.10 C 84.28 121.99 80.90 118.60 78.23 114.78 C 75.46 110.75 72.34 106.84 70.73 102.15 C 68.63 101.54 67.92 99.57 67.44 97.66 C 67.12 97.96 66.48 98.58 66.16 98.88 Z"
     fill="#ffffff" />
  <path
     id="path68"
     d=" M 71.04 95.97 C 73.00 97.66 74.29 99.95 75.21 102.35 C 72.78 101.05 71.51 98.58 71.04 95.97 Z"
     fill="#ffffff" />
  <path
     id="path70"
     d=" M 103.28 94.97 C 106.37 100.40 107.78 106.57 109.20 112.60 C 104.89 112.68 101.51 109.06 100.78 105.03 C 100.96 101.56 102.42 98.31 103.28 94.97 Z"
     fill="#ffffff" />
  <path
     fill="#ffffff"
     id="path72"
     d=" M 34.92 131.40 C 44.43 121.14 54.24 111.15 63.94 101.08 C 63.66 101.40 63.09 102.03 62.81 102.35 C 64.67 109.42 69.36 115.21 72.29 121.81 C 73.11 122.32 73.94 122.83 74.76 123.33 C 77.18 132.02 76.92 141.14 78.66 149.96 C 78.33 148.58 77.22 148.11 75.91 148.16 C 60.85 147.43 46.33 141.16 34.92 131.40 Z" />
  <path
     id="path74"
     d=" M 75.09 102.68 C 78.09 104.45 79.55 107.75 81.69 110.35 C 84.45 113.92 87.98 116.83 90.54 120.56 C 93.69 122.28 96.89 124.15 99.39 126.78 C 95.80 126.97 92.50 125.42 89.12 124.48 C 89.29 123.25 89.47 122.01 89.66 120.78 C 87.40 121.09 86.49 118.95 85.31 117.51 C 81.75 112.68 77.50 108.25 75.09 102.68 Z"
     fill="#ffffff" />
</svg>
